<?xml version="1.0" encoding="UTF-8"?><svg id="Totoro" xmlns="http://www.w3.org/2000/svg" viewBox="0 0 155.86 155.86"><defs><style>.cls-1{fill:#fff;}.cls-2{fill:#b5ed54;}.cls-3{fill:#454747;}.cls-4{fill:#585959;}</style></defs><g id="bg"><path class="cls-2" d="m155.86,77.93c0,23.66-10.55,44.86-27.19,59.14-13.64,11.72-31.36,18.79-50.74,18.79s-35.34-6.39-48.68-17.07c-.78-.63-1.55-1.27-2.31-1.93-4.67-4.04-8.84-8.62-12.44-13.64C5.37,110.45,0,94.82,0,77.93,0,34.89,34.89,0,77.93,0s77.93,34.89,77.93,77.93Z"/></g><g id="Tot_2"><path class="cls-1" d="m130.26,127.06c0,3.45-.55,6.81-1.59,10.01-13.64,11.72-31.36,18.79-50.74,18.79s-35.34-6.39-48.68-17.07c-.78-.63-1.55-1.27-2.31-1.93-.99-3.14-1.52-6.42-1.52-9.8,0-22.56,23.47-40.85,52.42-40.85s52.42,18.29,52.42,40.85Z"/><path class="cls-4" d="m51.89,120.38c3.5-2.59,6.33-2.43,6.33-2.43,0,0,3.04-.12,6.33,2.43,2.92,2.26,5.06,4.96,5.06,6.43s-2.43.11-4.85-1.16c-2.21-1.15-5.45-1.48-6.54-1.47-1.03.01-4.33.32-6.54,1.47-2.43,1.27-4.85,2.64-4.85,1.16s2.1-4.24,5.06-6.43Z"/><path class="cls-4" d="m104.46,120.38c-3.5-2.59-6.33-2.43-6.33-2.43,0,0-3.04-.12-6.33,2.43-2.92,2.26-5.06,4.96-5.06,6.43s2.43.11,4.85-1.16c2.21-1.15,5.45-1.48,6.54-1.47,1.03.01,4.33.32,6.54,1.47,2.43,1.27,4.85,2.64,4.85,1.16s-2.1-4.24-5.06-6.43Z"/><path class="cls-4" d="m84.47,110.66c-3.5-2.59-6.33-2.43-6.33-2.43,0,0-3.04-.12-6.33,2.43-2.92,2.26-5.06,4.96-5.06,6.43s2.43.11,4.85-1.16c2.21-1.15,5.45-1.48,6.54-1.47,1.03.01,4.33.32,6.54,1.47,2.43,1.27,4.85,2.64,4.85,1.16s-2.1-4.24-5.06-6.43Z"/><path class="cls-3" d="m148.97,85.04c.1-.65-1.54-1.36-8.57-1.3-5.45.04-10.13.72-12.23,1.08-.14-.33-.28-.67-.43-1.01-.01-.03-.03-.04-.04-.07-.21-.48-.44-.96-.66-1.43,1.05-.85,2.75-2.12,4.93-3.33,5.31-2.95,9.95-3.27,9.92-4.11-.03-.54-1.49-.83-7.2.43-4.43.98-8.13,2.35-9.77,3.01-3.7-6.33-8.62-11.84-14.45-16.23v-7.06s3.12.78,5.73-.92c2.6-1.69,2.47-5.06,2.47-11.2s-.91-14.07-3.38-19.41c-2.48-5.34-5.47-4.95-5.47-4.95-6.39-.39-12.38,18.24-13.03,26.06-.65,7.81,4.43,8.33,4.43,8.33l.09,3.57c-7.06-3.4-14.96-5.32-23.3-5.39h0s-.04,0-.05,0c-.02,0-.04,0-.05,0h0c-8.34.07-16.24,1.99-23.3,5.39l.09-3.57s5.08-.52,4.43-8.33c-.65-7.82-6.64-26.45-13.03-26.06,0,0-2.99-.39-5.47,4.95-2.47,5.34-3.38,13.55-3.38,19.41s-.13,9.51,2.47,11.2c2.61,1.7,5.73.92,5.73.92v7.06c-5.83,4.39-10.75,9.9-14.45,16.23-1.64-.66-5.34-2.03-9.77-3.01-5.71-1.26-7.17-.97-7.2-.43-.03.84,4.61,1.16,9.92,4.11,2.18,1.21,3.88,2.48,4.93,3.33-.22.47-.45.95-.66,1.43-.01.03-.03.04-.04.07-.15.34-.29.68-.43,1.01-2.1-.36-6.78-1.04-12.23-1.08-7.03-.06-8.67.65-8.57,1.3.17.99,5.7.2,12.69,2.34,2.55.78,4.69,1.72,6.16,2.44-.37,1.06-.67,2.11-.94,3.12-2.07.54-4.9,1.38-7.92,2.58-5.71,2.28-6.81,3.39-6.51,3.88.46.75,4.68-1.72,11.05-2.28.88-.08,1.72-.12,2.51-.14-.57,3.3-.63,5.61-.63,5.61,0,0-4.33,7.15-6.59,13.55-.81,2.3-1.43,4.9-1.88,7.27,4.18,5.84,9.15,11.08,14.75,15.57.23-3.04.52-6.22.87-7.59.75-3.02,2.07-8.1,6.96-15.25,4.9-7.15,9.6-10.35,16.57-15.06,5.21-3.52,12.72-5.25,16.19-5.9,2.37-.35,4.8-.53,7.27-.53.13,0,.27,0,.41,0h0s.04,0,.05,0c.02,0,.04,0,.05,0h0c.14,0,.28-.01.41-.01,2.47,0,4.9.18,7.27.53,3.47.65,10.98,2.38,16.19,5.9,6.97,4.71,11.67,7.91,16.57,15.06,4.89,7.15,6.21,12.23,6.96,15.25.35,1.37.64,4.55.87,7.59,5.6-4.49,10.57-9.73,14.75-15.57-.45-2.37-1.07-4.97-1.88-7.27-2.26-6.4-6.59-13.55-6.59-13.55,0,0-.06-2.31-.63-5.61.79.02,1.63.06,2.51.14,6.37.56,10.59,3.03,11.05,2.28.3-.49-.8-1.6-6.51-3.88-3.02-1.2-5.85-2.04-7.92-2.58-.27-1.01-.57-2.06-.94-3.12,1.47-.72,3.61-1.66,6.16-2.44,6.99-2.14,12.52-1.35,12.69-2.34Z"/><path class="cls-1" d="m98.89,78.73c0,4.75,3.85,8.59,8.59,8.59s8.61-3.85,8.61-8.59-3.85-8.61-8.61-8.61-8.59,3.86-8.59,8.61Zm5.4,0c0-1.77,1.44-3.21,3.2-3.21s3.21,1.44,3.21,3.21-1.44,3.2-3.21,3.2-3.2-1.44-3.2-3.2Z"/><path class="cls-1" d="m40.16,78.73c0,4.75,3.85,8.59,8.59,8.59s8.61-3.85,8.61-8.59-3.85-8.61-8.61-8.61-8.59,3.86-8.59,8.61Zm5.4,0c0-1.77,1.44-3.21,3.2-3.21s3.21,1.44,3.21,3.21-1.44,3.2-3.21,3.2-3.2-1.44-3.2-3.2Z"/><path class="cls-1" d="m86.92,78.62c0-2.17-3.99-3.93-8.91-3.93h0s0,0,0,0,0,0,0,0h0c-4.92,0-8.91,1.76-8.91,3.93s3.99,3.94,8.91,3.94h0s0,0,0,0,0,0,0,0h0c4.92,0,8.91-1.76,8.91-3.94Z"/></g></svg>
