<?xml version="1.0" encoding="UTF-8"?><svg id="Layer_1" xmlns="http://www.w3.org/2000/svg" viewBox="0 0 167.82 167.84"><defs><style>.cls-1{fill:#fff;}.cls-2{fill:#ff7900;}.cls-3{fill:#d6d6d6;}.cls-4{fill:#a3a3a3;}.cls-5{fill:#353535;}.cls-6{fill:#898989;opacity:.62;}</style></defs><path class="cls-6" d="m92.72,0c-4.99,17.63-19.09,26.87-40.87,26.31-9.88-.24-22.88,2.6-29.67,11.33-4.95,6.37-5.91,15.11-2.86,25.98,2.01,7.14,7.43,11.89,7.49,11.94l-9.17,10.81c-.89-.75-8.8-7.67-11.96-18.92-5.41-19.23-.09-31.55,5.31-38.51,8.52-10.95,23.91-17.24,41.22-16.79,13.25.33,21.51-3.5,25.49-12.15h15.02Z"/><path class="cls-5" d="m33.65,160.75c-2.2,0-4.31-.24-6.44-.72-9.88-2.24-16.67-8.75-18.63-17.84-1.77-8.19-1.57-19.61-1.39-29.68.05-2.93.1-5.69.1-8.24,0-11.88,1.65-16.81,4.49-21.3,5.65-8.91,16.52-10.17,19.72-10.34.27-.01.42-.05.49-.07.31-.39.56-1.45.74-3.14.65-5.82,4.71-13.73,11.24-17.76,10.13-6.26,21.49-11.88,48.77-11.88,2.01,0,4.12.03,6.26.09,27.78.79,44.55,6.36,54.36,18.06,7.66,9.13,7.46,20.95,7.33,28.78-.02,1.11-.04,2.14-.03,3.07.12,9.25-.27,33.35-.28,34.37v.17c-.29,6.84-4.8,20.31-19.87,22.36-2.18.3-4.27.44-6.37.44-3.67,0-6.87-.43-10.58-.93-5.08-.68-11.41-1.54-21.76-1.54-.85,0-1.72,0-2.63.02-18.15.24-33.65,6.53-42.91,10.29-2.46,1-4.41,1.79-6.06,2.34-5.48,1.82-10.87,3.45-16.56,3.45Z"/><path class="cls-2" d="m92.75,46.87c1.93,0,3.95.03,6.06.09,28.24.8,41.79,6.78,49.13,15.53,6.97,8.31,5.56,20.58,5.65,27.39.12,9.25-.28,34.16-.28,34.16,0,0-.56,13.84-13.74,15.62-1.96.27-3.73.38-5.41.38-7.99,0-14.31-2.46-32.34-2.47-.88,0-1.78,0-2.72.02-24.19.32-43.72,10.54-51.11,12.99-5.42,1.79-9.88,3.09-14.33,3.09-1.61,0-3.22-.17-4.87-.54-5.62-1.28-11.6-4.68-13.27-12.42-2.07-9.6-1.13-25.07-1.13-36.42s1.57-14.63,3.39-17.51c3.58-5.65,10.8-6.88,14.12-7.06,6.96-.38,7.62-7.06,7.91-9.6.41-3.66,3.24-9.54,7.91-12.42,8.94-5.52,18.98-10.82,45.04-10.82m0-14.17v14.17-14.17c-29.12,0-41.9,6.39-52.5,12.93-7.98,4.93-12.68,13.46-14.16,20.54-8.68,1.66-16.06,6.33-20.29,13.02C2.26,84.77.21,90.67.21,104.28c0,2.49-.05,5.22-.1,8.11-.18,10.46-.39,22.31,1.55,31.3,2.57,11.9,11.31,20.38,23.98,23.26,2.62.59,5.31.9,8.01.9,6.74,0,12.73-1.8,18.79-3.8,1.88-.62,4.02-1.49,6.5-2.5,8.8-3.57,23.52-9.55,40.33-9.77.87-.01,1.71-.02,2.52-.02,9.88,0,15.69.78,20.82,1.47,3.8.51,7.38.99,11.53.99,2.42,0,4.81-.17,7.32-.51,10.16-1.38,18.21-7.18,22.66-16.34,2.86-5.88,3.28-11.25,3.34-12.75v-.17s0-.17,0-.17c.02-1.03.41-25.23.28-34.58-.01-.78,0-1.79.02-2.86.14-8.34.38-22.29-8.98-33.45-11.23-13.38-29.6-19.73-59.58-20.59-2.21-.06-4.39-.1-6.46-.1h0Z"/><rect class="cls-4" x="24.57" y="89.54" width="17.02" height="53.07" rx="8.51" ry="8.51"/><rect class="cls-3" x="49.51" y="93.71" width="18.71" height="18.71" rx="9.35" ry="9.35"/><rect class="cls-1" x="49.51" y="70" width="18.71" height="18.71" rx="9.35" ry="9.35"/><rect class="cls-4" x="49.51" y="117.43" width="18.71" height="18.71" rx="9.35" ry="9.35"/><rect class="cls-1" x="73.93" y="57.27" width="18.71" height="18.71" rx="9.35" ry="9.35"/><rect class="cls-3" x="73.74" y="81.37" width="18.71" height="18.71" rx="9.35" ry="9.35"/><rect class="cls-4" x="73.74" y="105.27" width="18.71" height="18.71" rx="9.35" ry="9.35"/><rect class="cls-1" x="99.15" y="58.03" width="18.71" height="18.71" rx="9.35" ry="9.35"/><rect class="cls-3" x="99.15" y="82.87" width="18.71" height="18.71" rx="9.35" ry="9.35"/><rect class="cls-4" x="99.15" y="105.84" width="18.71" height="18.71" rx="9.35" ry="9.35"/><rect class="cls-1" x="124.56" y="65.18" width="18.71" height="18.71" rx="9.35" ry="9.35"/><rect class="cls-3" x="124.56" y="88.71" width="18.71" height="18.71" rx="9.35" ry="9.35"/><rect class="cls-4" x="124.56" y="112.24" width="18.71" height="18.71" rx="9.35" ry="9.35"/></svg>